<svg xmlns="http://www.w3.org/2000/svg" viewBox="0 0 100 100" fill="#FFF"><path d="M16.17 63.815c-2.421 7.709-1.747 14.115 2.147 18.006 3.701 3.7 10.001 4.169 17.417 1.946 3.74 7.176 8.753 11.232 14.267 11.232 8.408 0 15.662-10.643 18.998-26C84.355 65.663 95 58.414 95 50c0-5.447-4.083-10.408-11.177-14.139 2.313-7.528 1.878-13.933-1.867-17.68-3.893-3.894-10.382-4.482-18.145-2.011C60.126 9.216 55.293 5 50.001 5c-8.516 0-15.844 9.963-19.122 25.825C14.792 34.073 5 41.438 5 50c0 5.292 4.215 10.127 11.17 13.815zm41.896-45.362c-5.207 2.465-10.795 6.122-16.433 10.908a93.91 93.91 0 0 0-6.426.712C37.855 17.985 42.84 9.844 48.554 9.844c3.588 0 6.896 3.216 9.512 8.609zM33.398 43.305a102.855 102.855 0 0 1 4.849-5.194 103.06 103.06 0 0 1 5.036-4.713c2.183-.138 4.425-.21 6.718-.21 4.416 0 8.673.271 12.648.776.822 4.91 1.277 10.335 1.277 16.036 0 1.993-.055 3.95-.164 5.862a103.136 103.136 0 0 1-3.777 3.986 107.548 107.548 0 0 1-4.14 3.917c-1.91.107-3.859.162-5.844.162-5.705 0-11.125-.454-16.035-1.276-.509-3.976-.783-8.23-.783-12.651 0-2.281.073-4.516.215-6.695zM29.045 50c0 4.17.224 8.118.642 11.82-2.728-.615-5.25-1.348-7.516-2.18 1.72-3.481 4.04-7.203 6.884-10.989-.007.447-.01.896-.01 1.349zm17.82 20.9c-3.406 2.37-6.727 4.284-9.827 5.697a63.51 63.51 0 0 1-1.862-6.81c3.703.602 7.622.983 11.69 1.113zm24.036-23.978a91.386 91.386 0 0 0-1.113-11.745 62.602 62.602 0 0 1 6.871 1.885c-1.43 3.11-3.369 6.444-5.758 9.86zm-20.9-17.872c-.47 0-.934 0-1.4.006 3.795-2.864 7.525-5.2 11.014-6.94.845 2.288 1.586 4.835 2.205 7.591-3.713-.43-7.666-.657-11.82-.657zm28.145 4.332c-2.779-1.01-5.851-1.864-9.185-2.544-.898-4.095-2.073-7.848-3.477-11.148 5.302-1.692 9.605-1.524 12.027.893 2.535 2.537 2.59 7.146.635 12.8zm-7.93 28.456c.131-1.028.245-2.071.342-3.132 5.417-6.442 9.488-13.07 11.956-19.172 4.807 2.533 7.641 5.653 7.641 9.02 0 5.669-8.013 10.619-19.939 13.284zm-30.72 20.606c6.095-2.435 12.727-6.485 19.179-11.88a97.059 97.059 0 0 0 3.163-.342C59.172 82.144 54.224 90.16 48.554 90.16c-3.387 0-6.517-2.868-9.057-7.716zM19.77 65.522c3.268 1.38 6.98 2.542 11.019 3.432.664 3.323 1.501 6.379 2.49 9.138-5.543 1.873-10.06 1.784-12.559-.717-2.393-2.395-2.58-6.63-.95-11.853zM9.84 48.554c0-5.716 8.16-10.704 20.261-13.352a93.51 93.51 0 0 0-.733 6.43c-4.827 5.678-8.485 11.254-10.928 16.432-5.385-2.618-8.6-5.921-8.6-9.51z"/></svg>